<!--

https://github.com/datalog/datamatrix-svg

--><svg viewBox="0 0 24 24" width="192" height="192" fill="#037" shape-rendering="crispEdges" xmlns="http://www.w3.org/2000/svg" version="1.1"><path transform="matrix(1,0,0,1,0,0)" d="M0,23h24v1h-24v-1zM22,22h1v1h-1v-1zM20,22h1v1h-1v-1zM16,22h2v1h-2v-1zM14,22h1v1h-1v-1zM11,22h2v1h-2v-1zM7,22h2v1h-2v-1zM3,22h1v1h-1v-1zM0,22h2v1h-2v-1zM23,21h1v1h-1v-1zM21,21h1v1h-1v-1zM14,21h4v1h-4v-1zM12,21h1v1h-1v-1zM10,21h1v1h-1v-1zM7,21h1v1h-1v-1zM5,21h1v1h-1v-1zM2,21h2v1h-2v-1zM0,21h1v1h-1v-1zM21,20h2v1h-2v-1zM19,20h1v1h-1v-1zM17,20h1v1h-1v-1zM10,20h4v1h-4v-1zM6,20h1v1h-1v-1zM2,20h3v1h-3v-1zM0,20h1v1h-1v-1zM23,19h1v1h-1v-1zM18,19h4v1h-4v-1zM14,19h2v1h-2v-1zM5,19h4v1h-4v-1zM0,19h2v1h-2v-1zM21,18h2v1h-2v-1zM18,18h2v1h-2v-1zM16,18h1v1h-1v-1zM14,18h1v1h-1v-1zM12,18h1v1h-1v-1zM9,18h2v1h-2v-1zM7,18h1v1h-1v-1zM3,18h2v1h-2v-1zM0,18h2v1h-2v-1zM22,17h2v1h-2v-1zM17,17h3v1h-3v-1zM14,17h1v1h-1v-1zM12,17h1v1h-1v-1zM9,17h2v1h-2v-1zM6,17h2v1h-2v-1zM4,17h1v1h-1v-1zM2,17h1v1h-1v-1zM0,17h1v1h-1v-1zM20,16h1v1h-1v-1zM18,16h1v1h-1v-1zM11,16h2v1h-2v-1zM6,16h3v1h-3v-1zM4,16h1v1h-1v-1zM2,16h1v1h-1v-1zM0,16h1v1h-1v-1zM23,15h1v1h-1v-1zM18,15h3v1h-3v-1zM15,15h2v1h-2v-1zM12,15h1v1h-1v-1zM6,15h5v1h-5v-1zM0,15h4v1h-4v-1zM20,14h1v1h-1v-1zM17,14h1v1h-1v-1zM14,14h1v1h-1v-1zM12,14h1v1h-1v-1zM6,14h5v1h-5v-1zM4,14h1v1h-1v-1zM0,14h3v1h-3v-1zM23,13h1v1h-1v-1zM19,13h1v1h-1v-1zM16,13h1v1h-1v-1zM11,13h4v1h-4v-1zM6,13h4v1h-4v-1zM0,13h1v1h-1v-1zM20,12h2v1h-2v-1zM16,12h3v1h-3v-1zM14,12h1v1h-1v-1zM8,12h5v1h-5v-1zM5,12h2v1h-2v-1zM0,12h3v1h-3v-1zM20,11h4v1h-4v-1zM15,11h4v1h-4v-1zM13,11h1v1h-1v-1zM10,11h2v1h-2v-1zM5,11h3v1h-3v-1zM3,11h1v1h-1v-1zM0,11h2v1h-2v-1zM20,10h3v1h-3v-1zM16,10h3v1h-3v-1zM13,10h2v1h-2v-1zM10,10h1v1h-1v-1zM7,10h1v1h-1v-1zM5,10h1v1h-1v-1zM0,10h1v1h-1v-1zM22,9h2v1h-2v-1zM18,9h3v1h-3v-1zM9,9h7v1h-7v-1zM7,9h1v1h-1v-1zM3,9h2v1h-2v-1zM0,9h2v1h-2v-1zM18,8h5v1h-5v-1zM13,8h2v1h-2v-1zM11,8h1v1h-1v-1zM8,8h1v1h-1v-1zM5,8h2v1h-2v-1zM0,8h3v1h-3v-1zM20,7h4v1h-4v-1zM13,7h3v1h-3v-1zM10,7h1v1h-1v-1zM8,7h1v1h-1v-1zM5,7h2v1h-2v-1zM3,7h1v1h-1v-1zM0,7h2v1h-2v-1zM21,6h1v1h-1v-1zM18,6h2v1h-2v-1zM16,6h1v1h-1v-1zM9,6h5v1h-5v-1zM4,6h4v1h-4v-1zM0,6h3v1h-3v-1zM17,5h7v1h-7v-1zM13,5h3v1h-3v-1zM10,5h2v1h-2v-1zM7,5h2v1h-2v-1zM3,5h3v1h-3v-1zM0,5h2v1h-2v-1zM22,4h1v1h-1v-1zM18,4h3v1h-3v-1zM15,4h2v1h-2v-1zM13,4h1v1h-1v-1zM10,4h1v1h-1v-1zM8,4h1v1h-1v-1zM5,4h1v1h-1v-1zM3,4h1v1h-1v-1zM0,4h2v1h-2v-1zM22,3h2v1h-2v-1zM19,3h1v1h-1v-1zM16,3h2v1h-2v-1zM12,3h1v1h-1v-1zM10,3h1v1h-1v-1zM7,3h2v1h-2v-1zM0,3h1v1h-1v-1zM22,2h1v1h-1v-1zM19,2h2v1h-2v-1zM16,2h1v1h-1v-1zM14,2h1v1h-1v-1zM10,2h3v1h-3v-1zM7,2h1v1h-1v-1zM5,2h1v1h-1v-1zM3,2h1v1h-1v-1zM0,2h1v1h-1v-1zM21,1h3v1h-3v-1zM15,1h5v1h-5v-1zM12,1h2v1h-2v-1zM6,1h5v1h-5v-1zM4,1h1v1h-1v-1zM0,1h2v1h-2v-1zM22,0h1v1h-1v-1zM20,0h1v1h-1v-1zM18,0h1v1h-1v-1zM16,0h1v1h-1v-1zM14,0h1v1h-1v-1zM12,0h1v1h-1v-1zM10,0h1v1h-1v-1zM8,0h1v1h-1v-1zM6,0h1v1h-1v-1zM4,0h1v1h-1v-1zM2,0h1v1h-1v-1zM0,0h1v1h-1v-1z"/></svg>